<svg xmlns="http://www.w3.org/2000/svg" viewBox="0 0 856.96 210.32"><defs><style>.cls-1,.cls-3,.cls-4{fill:#fff;}.cls-2{fill:#c9c9c9;}.cls-3{font-size:136px;letter-spacing:0.07em;}.cls-3,.cls-4{font-family:AgencyFB-Bold, Agency FB;font-weight:700;}.cls-4{font-size:62px;}</style></defs><title>biscuaIcon</title><g id="Capa_2" data-name="Capa 2"><g id="Capa_1-2" data-name="Capa 1"><path class="cls-1" d="M78.57,145.44c-6.08,9.51-10.48,19.92-15.89,29.79-3,5.39-5.58,11-8.62,16.29-9.36,16.42-22.6,21.78-40.84,16.59C10,207.2,7,206,3.86,204.77A34.87,34.87,0,0,1,0,202.66c3.47-6.35,6.86-12.56,10.26-18.76q19.27-35.16,38.56-70.33c.63-1.16,1.14-2.38,1.71-3.57,5.12-7.9,9.25-16.35,13.73-24.6,1.16-2.13,3.52-4.14,2.29-7.14,2.72.48,2.71-2.07,3.46-3.43,10.16-18.29,20.33-36.58,30.21-55C105,11,110.65,3.41,120.54,0h9c10.31,3.9,16.19,11.71,20.1,21.71s8.65,20,13.4,30.81c-3.27-1.2-5.63-2.16-8.06-3-13.92-4.51-25-.58-32.33,12.06s-14,25.59-21,38.41q-2.51,4.59-4.87,9.25c-.73,1.44-1.84,2.84-1.17,4.65-1.93,0-2.27,1.61-3,2.84-4.51,7.66-8.28,15.7-12.26,23.63C79.54,142,78.38,143.49,78.57,145.44Z"/><path class="cls-1" d="M113.58,135.89c9.19,6,13.79,5.51,21.2-2.55,4.62-5,9.18-10.08,13.75-15.14,1.09-1.2,2.56-2.23,2.24-4.19a3.89,3.89,0,0,0,2.93-1.67c6.66-7.53,13.39-15,19.92-22.65,1.55-1.82,4-3.17,4.12-6,1.67.15,2.16-1.31,3-2.24,3.48-3.8,6.72-7.84,10.42-11.41,13.21-12.77,31.78-14.39,47.1-4.29A9.89,9.89,0,0,1,242,69.43c-5.5,6-11,12-16.44,17.92q-13.85,15-27.68,30.06c-1.18,1.29-3,2.31-2.45,4.55-2.14,0-3.14,1.7-4.35,3-5.13,5.38-10.23,10.78-15.23,16.27-3.22,3.52-6.25,7.21-9.36,10.83-7,6.11-12.58,13.55-19.3,19.92-6.42,6.09-13.57,10.67-22.72,11-10.75.42-18.39-5.42-25.18-12.85C105,159.09,108.74,147.26,113.58,135.89Z"/><path class="cls-1" d="M212.83,159.88l21.28,45.36c-15.93,8.27-36.38,7.41-48.4-9.88A93.52,93.52,0,0,1,177.87,181a5.48,5.48,0,0,0,3.22-1C191.64,173.25,202.24,166.58,212.83,159.88Z"/><path class="cls-1" d="M132.54,98C121.06,96.43,119,96.58,107,99.89c-.93-1.25.29-2.15.72-3,5.37-10.45,10.44-21.07,16.48-31.17,6-9.93,14.26-15.48,26.36-13.87C159,53,164.84,57.54,168.68,64.94c-1.25,0-2.09.78-3.07,1.44-4.59,3.11-7.94,7.56-12.16,11C145.85,83.64,139.15,90.77,132.54,98Z"/><path class="cls-2" d="M212.83,159.88c-10.59,6.7-21.19,13.37-31.74,20.12a5.48,5.48,0,0,1-3.22,1c-4.54-9.36-7.46-19.35-11.36-29,3.11-3.62,6.14-7.31,9.36-10.83,5-5.49,10.1-10.89,15.23-16.27,1.21-1.27,2.21-3,4.35-3C201.6,134.43,207.49,147,212.83,159.88Z"/><path class="cls-2" d="M66.55,78.26c1.23,3-1.13,5-2.29,7.14-4.48,8.25-8.61,16.7-13.73,24.6Q35.32,91.31,20.11,72.59C34.34,62.41,53.94,64.66,66.55,78.26Z"/><path class="cls-2" d="M113.58,135.89c-4.84,11.37-8.6,23.2-14.27,34.24C93,163.78,87.89,156.4,82.12,149.59c-1.17-1.39-2.37-2.76-3.55-4.15-.19-1.95,1-3.43,1.77-5,4-7.93,7.75-16,12.26-23.63.73-1.23,1.07-2.87,3-2.84Z"/><path class="cls-2" d="M132.54,98c6.61-7.22,13.31-14.35,20.91-20.58,4.22-3.47,7.57-7.92,12.16-11,1-.66,1.82-1.43,3.07-1.44,4,5.77,5.83,12.61,9.06,18.75-.15,2.83-2.57,4.18-4.12,6-6.53,7.65-13.26,15.12-19.92,22.65a3.89,3.89,0,0,1-2.93,1.67C146.68,106.41,140.91,100.73,132.54,98Z"/><text class="cls-3" transform="translate(348 133.32)">BISQUA</text><text class="cls-4" transform="translate(257 190.32)">Arquitectura de Información</text></g></g></svg>